Coordinates
version=1
nRows=13
nColumns=36
inDegrees=yes

Units are S.I. units (second, meters, Newtons, ...)
If the header above contains a line with 'inDegrees', this indicates whether rotational values are in degrees (yes) or radians (no).

endheader
time	pelvis_tilt	pelvis_list	pelvis_rotation	pelvis_tx	pelvis_ty	pelvis_tz	hip_flexion_r	hip_adduction_r	hip_rotation_r	knee_angle_r	knee_angle_r_beta	ankle_angle_r	subtalar_angle_r	mtp_angle_r	hip_flexion_l	hip_adduction_l	hip_rotation_l	knee_angle_l	knee_angle_l_beta	ankle_angle_l	subtalar_angle_l	mtp_angle_l	lumbar_extension	lumbar_bending	lumbar_rotation	arm_flex_r	arm_add_r	arm_rot_r	elbow_flex_r	pro_sup_r	arm_flex_l	arm_add_l	arm_rot_l	elbow_flex_l	pro_sup_l
      0.00000000	     -7.60455391	      0.74821653	    -13.05356693	      0.01936541	      1.18547684	      0.12081549	      8.46241201	      2.37818502	     -8.97180348	      4.36336289	      0.07615505	      6.21804744	     -4.27002853	     -6.42218482	      7.27695103	     -5.98869121	     -4.82043362	      8.50525483	      0.14844470	     11.35516147	      0.17002400	     -6.42218482	      1.30971860	      3.06100142	     -1.23571430	      5.22551996	     -9.12041530	     25.17845903	     27.11709604	     76.06294545	      3.08499004	     -8.03550423	     21.46946005	     34.29850350	     71.39418762
      0.01666670	    -10.32709627	      2.65914036	    -13.46045902	      0.02021074	      1.18463841	      0.12085332	     12.53715699	      1.14523941	     -9.09100332	      6.38056086	      0.11136180	     10.18248433	     -3.16828432	     -6.56376006	     11.57452595	     -4.35050387	     -4.82140550	      9.83726773	      0.17169271	     11.45788390	      1.05796017	     -6.56376006	      5.71531474	      1.82055228	     -0.70033950	      3.97778552	     -8.56779956	     24.17035413	     26.33056803	     74.99552425	      3.19009580	     -7.74062007	     20.87997578	     33.08826242	     70.81971937
      0.03333330	    -10.40873688	      4.11793263	    -13.73601993	      0.02020208	      1.18602439	      0.12242347	     12.54305265	     -0.24261868	    -10.40000095	      5.91343082	      0.10320884	     10.83859611	     -1.45532861	     -7.00449639	     12.13986697	     -3.06172046	     -5.59453919	      9.91497429	      0.17304895	     11.06226333	      0.48307079	     -7.00449639	      6.66084699	      0.08290354	      0.51944383	      3.10247085	     -7.38490786	     17.81220167	     26.04757150	     83.49700225	      4.44572562	     -8.26509102	     21.93748310	     31.50153812	     77.20222102
      0.05000000	    -10.16262007	      4.61994730	    -13.89844175	      0.01928009	      1.18681722	      0.12432229	     12.02002449	     -0.65722642	    -10.58840807	      5.40967880	      0.09441671	     11.15101444	     -0.93503132	     -7.12576099	     11.76319133	     -2.49049337	     -5.79492549	      9.46852752	      0.16525698	     10.48323276	      0.02387225	     -7.12576099	      6.73150701	     -0.59964946	      1.11222229	      2.81815710	     -7.09922874	     16.73381083	     26.08782275	     83.15605768	      4.90559823	     -8.77131225	     23.26061173	     31.37539516	     76.85431721
      0.06666670	    -10.22825598	      4.79451022	    -13.92885717	      0.01523249	      1.18144104	      0.12328883	     12.15895597	     -0.67671380	    -10.33364243	      5.07874102	      0.08864075	     11.29862341	     -1.12991841	     -7.16978060	     11.98301561	     -2.35385718	     -5.95480800	      9.32786823	      0.16280201	     10.09579720	     -0.24756970	     -7.16978060	      6.77465153	     -0.73464606	      1.56647927	      2.91257076	     -7.21059402	     16.40303297	     26.74893012	     82.84250174	      5.27919779	     -9.25405203	     24.44852354	     31.70511822	     76.30443399
      0.08333330	    -10.17234580	      4.81174430	    -13.89333558	      0.01229208	      1.18434435	      0.12329246	     12.20647295	     -0.58415696	     -9.94598841	      4.73892892	      0.08270991	     11.42763526	     -1.21523393	     -7.21533515	     12.29064447	     -2.30709923	     -5.78527898	      9.56596606	      0.16695760	      9.94051746	     -0.90820461	     -7.21533515	      6.44760246	     -0.77872850	      1.82925272	      3.21569925	     -7.34461502	     16.47386076	     27.13172311	     81.47029313	      5.75245880	     -9.44339061	     24.83348016	     32.14009565	     75.06107069
      0.10000000	    -10.23597220	      4.76851571	    -13.88052359	      0.00915118	      1.18452017	      0.12334954	     12.43300643	     -0.42402868	     -9.50832014	      4.64161359	      0.08101144	     11.12348268	     -1.77200655	     -7.24934840	     12.72650639	     -2.42053567	     -5.75940369	      9.91676876	      0.17308027	      9.43288375	     -1.50388606	     -7.24934840	      6.15122719	     -0.76453250	      2.11130045	      3.78428164	     -7.46956603	     16.97183350	     27.05525842	     80.40245074	      6.50478577	     -9.57622597	     25.67231509	     32.05015538	     73.93375085
      0.11666670	    -10.45652976	      4.71562131	    -13.78489936	      0.01013684	      1.18651224	      0.12344101	     12.67905363	     -0.27207265	     -9.31857209	      4.51681298	      0.07883326	     10.55380355	     -2.17901513	     -7.29963158	     13.21977325	     -2.56373362	     -5.79362067	     10.29508922	      0.17968320	      8.79016322	     -2.07638814	     -7.29963158	      6.24926083	     -0.71395781	      2.34922295	      4.15603968	     -7.75024962	     18.36262393	     26.70380017	     80.01689515	      7.47233824	     -9.69436832	     28.08363503	     31.21954664	     72.94074766
      0.13333330	    -10.42576292	      4.66496086	    -13.74544470	      0.00999294	      1.18747923	      0.12340542	     12.51786767	     -0.21982653	     -9.45844978	      4.32433368	      0.07547386	     10.02347204	     -2.30416988	     -7.32418568	     13.31972162	     -2.61148335	     -5.78957444	     10.51948419	      0.18359963	      8.03386206	     -2.71282834	     -7.32418568	      5.89190467	     -0.71771427	      2.37448854	      4.21516334	     -7.92990075	     18.46086430	     27.27176378	     78.89172400	      7.66957513	     -9.87688241	     28.32492052	     31.86643750	     71.89489208
      0.15000000	    -10.46032347	      4.65898062	    -13.83725316	      0.01054952	      1.18733517	      0.12329843	     12.54340018	     -0.19335343	     -9.45094194	      4.29214646	      0.07491209	      9.71433697	     -2.48240668	     -7.39233625	     13.46182045	     -2.65941514	     -5.98487754	     10.86516276	      0.18963286	      7.48325260	     -3.11485936	     -7.39233625	      5.86398215	     -0.74168604	      2.58688818	      4.58622173	     -8.09491328	     20.19379734	     26.53589063	     76.82431182	      8.33370005	     -9.92808999	     30.26103425	     30.96333263	     69.46225535
      0.16666670	    -10.29520468	      4.62381558	    -13.97271022	      0.01167164	      1.18960185	      0.12395840	     12.20594237	     -0.18156710	     -9.40314665	      4.00109256	      0.06983224	      9.12480133	     -2.75449301	     -7.40314677	     13.13287653	     -2.63504506	     -6.04884783	     10.79121985	      0.18834232	      6.83684110	     -3.54424125	     -7.40314677	      5.51459088	     -0.74122626	      2.58791299	      4.64257916	     -8.24678359	     20.21917189	     26.93810173	     76.51689802	      8.23906423	    -10.03609566	     30.46398304	     31.32336799	     69.04490519
      0.18333330	    -10.23701126	      4.63137534	    -14.07701801	      0.01054817	      1.18704883	      0.12449929	     12.11729293	     -0.17614919	     -9.42329217	      3.89997698	      0.06806744	      8.92665551	     -2.96994223	     -7.41149648	     12.99621073	     -2.62409382	     -6.12905220	     10.72596152	      0.18720334	      6.44850935	     -3.87895848	     -7.41149648	      5.31922560	     -0.80056081	      2.67643037	      4.83863059	     -8.33920684	     20.47635823	     26.87896069	     76.77337550	      8.31024778	    -10.10644895	     30.93105838	     31.17575237	     68.90319189
      0.20000000	    -10.33137551	      4.66856133	    -14.19014723	      0.01282813	      1.18933638	      0.12414836	     12.12418113	     -0.16481339	     -9.52986711	      3.73525047	      0.06519242	      8.43749615	     -3.27108762	     -7.44121703	     13.01983991	     -2.59360548	     -6.17261687	     10.67388189	      0.18629438	      6.17952095	     -4.02653153	     -7.44121703	      5.46951934	     -0.80359615	      2.68112808	      5.02563345	     -8.47878353	     21.55341412	     26.46101797	     76.29083017	      8.37308977	    -10.11912604	     32.11651528	     30.68229116	     67.90099648
